Coordinates
version=1
nRows=27
nColumns=38
inDegrees=no

Units are S.I. units (second, meters, Newtons, ...)
If the header above contains a line with 'inDegrees', this indicates whether rotational values are in degrees (yes) or radians (no).

endheader
time	pelvis_tilt	pelvis_list	pelvis_rotation	pelvis_tx	pelvis_ty	pelvis_tz	hip_flexion_r	hip_adduction_r	hip_rotation_r	knee_angle_r	ankle_angle_r	subtalar_angle_r	mtp_angle_r	hip_flexion_l	hip_adduction_l	hip_rotation_l	knee_angle_l	ankle_angle_l	subtalar_angle_l	mtp_angle_l	lumbar_extension	lumbar_bending	lumbar_rotation	arm_flex_r	arm_add_r	arm_rot_r	elbow_flex_r	pro_sup_r	wrist_flex_r	wrist_dev_r	arm_flex_l	arm_add_l	arm_rot_l	elbow_flex_l	pro_sup_l	wrist_flex_l	wrist_dev_l
21.82	2.88428	1.38945	-1.27605	0.711553	-0.480459	0.948874	-0.199359	-0.0190012	-0.269286	0.124168	-0.0334413	0	0	-0.278557	-0.0333501	-0.193216	0.0629066	0.0508435	0	0	-0.332867	-0.000419055	0.0254885	0.333932	-0.49787	0.273197	1.64925	0.150483	0	0	0.15748	-0.327451	-0.0141241	1.87096	0.823746	0	0
21.83	2.88532	1.38975	-1.27636	0.710398	-0.481108	0.948795	-0.186404	-0.0241221	-0.275899	0.146554	-0.0253922	0	0	-0.277973	-0.0320514	-0.191332	0.0620894	0.0507855	0	0	-0.332842	-0.000968315	0.0264675	0.302576	-0.497447	0.256689	1.66067	0.17607	0	0	0.133829	-0.330725	-0.0155433	1.87742	0.806582	0	0
21.84	2.88507	1.3919	-1.2755	0.709255	-0.481722	0.948594	-0.169133	-0.030533	-0.284016	0.17358	-0.0156601	0	0	-0.275106	-0.0303124	-0.189623	0.0618895	0.0507408	0	0	-0.328589	-0.00113696	0.033281	0.264046	-0.497192	0.23267	1.66951	0.23229	0	0	0.120284	-0.362124	0.147847	1.81488	1.5708	0	0
21.85	2.88513	1.39208	-1.27506	0.708196	-0.482336	0.948477	-0.155233	-0.0354684	-0.287287	0.197317	-0.00941403	0	0	-0.273883	-0.0291898	-0.188911	0.0625145	0.0513321	0	0	-0.328849	-0.00134301	0.0335524	0.233789	-0.494341	0.21886	1.67595	0.25483	0	0	0.0951456	-0.364411	0.143845	1.81889	1.5708	0	0
21.86	2.88612	1.39387	-1.27608	0.707195	-0.482927	0.948233	-0.137402	-0.0420001	-0.291323	0.225473	-0.00148091	0	0	-0.270594	-0.0273323	-0.18879	0.0639062	0.0521452	0	0	-0.327342	-0.00236387	0.0344627	0.202832	-0.490026	0.204675	1.67921	0.284076	0	0	0.0709226	-0.366894	0.142288	1.81835	1.5708	0	0
21.87	2.89073	1.39629	-1.28071	0.706197	-0.483528	0.947936	-0.118031	-0.049726	-0.294445	0.255507	0.00649288	0	0	-0.266697	-0.0247943	-0.188333	0.0655925	0.0530421	0	0	-0.325329	-0.00430612	0.0352736	0.172792	-0.483667	0.189915	1.67795	0.33249	0	0	0.0475921	-0.368763	0.14168	1.81474	1.5708	0	0
21.88	2.89861	1.39851	-1.28843	0.705227	-0.484096	0.947647	-0.0992171	-0.057634	-0.295248	0.284971	0.0137159	0	0	-0.263134	-0.0218304	-0.187239	0.067314	0.053672	0	0	-0.32382	-0.00672626	0.0354279	0.144646	-0.475835	0.17589	1.67376	0.373323	0	0	0.0243994	-0.370281	0.140856	1.80841	1.5708	0	0
21.89	2.91269	1.39759	-1.30252	0.704306	-0.484744	0.947449	-0.0838284	-0.0656582	-0.295118	0.31447	0.0207523	0	0	-0.263198	-0.0187192	-0.186296	0.0691473	0.0548569	0	0	-0.328512	-0.0089948	0.0291245	0.125804	-0.472357	0.227305	1.71646	0	0	0	-0.0112617	-0.344057	-0.0239101	1.86183	0.792532	0	0
21.9	2.92335	1.39987	-1.31313	0.703503	-0.485244	0.947114	-0.0647346	-0.0735861	-0.293794	0.344319	0.0245476	0	0	-0.258779	-0.0156109	-0.185914	0.0725332	0.0563078	0	0	-0.32703	-0.0120602	0.0286536	0.0827918	-0.470003	0.230681	1.69982	0	0	0	-0.0339315	-0.344289	-0.0282395	1.84689	0.751685	0	0
21.91	2.93876	1.40238	-1.32821	0.702754	-0.48567	0.946769	-0.0454199	-0.0825958	-0.294569	0.375112	0.0286308	0	0	-0.254106	-0.0118345	-0.18521	0.0764242	0.0578948	0	0	-0.325314	-0.0162025	0.0278665	0.0271998	-0.474662	0.261813	1.65298	0	0	0	-0.055546	-0.344386	-0.0317277	1.82944	0.720661	0	0
21.92	2.95773	1.40333	-1.34661	0.701984	-0.486029	0.946477	-0.0282594	-0.092163	-0.298417	0.405783	0.0335277	0	0	-0.251539	-0.00795876	-0.184656	0.079897	0.059352	0	0	-0.325427	-0.0198425	0.0265299	-0.00894501	-0.468899	0.270033	1.62037	0	0	0	-0.0761606	-0.343876	-0.0347637	1.80927	0.696234	0	0
21.93	2.97257	1.40365	-1.36097	0.701195	-0.486271	0.946225	-0.012634	-0.10068	-0.303572	0.43473	0.0384159	0	0	-0.249881	-0.00473921	-0.183963	0.0827324	0.0603332	0	0	-0.323796	-0.0212349	0.0303918	-0.0384348	-0.455851	0.252707	1.60374	0	0	0	-0.0873196	-0.372251	0.127634	1.73246	1.5708	0	0
21.94	2.98996	1.40087	-1.37741	0.700492	-0.486489	0.946105	-0.00183418	-0.10855	-0.310497	0.461502	0.0426673	0	0	-0.251779	-0.00191403	-0.18268	0.0850614	0.0612349	0	0	-0.329376	-0.0235236	0.0232472	-0.0525443	-0.441757	0.247373	1.58299	0	0	0	-0.114195	-0.341308	-0.0353263	1.75927	0.71872	0	0
21.95	3.00573	1.39843	-1.39244	0.69983	-0.486629	0.946059	0.00778726	-0.115036	-0.315418	0.485372	0.0461081	0	0	-0.253694	0.000799354	-0.181264	0.0868374	0.0617216	0	0	-0.332438	-0.0248143	0.0214386	-0.0716889	-0.427496	0.237315	1.55746	0	0	0	-0.131265	-0.338837	-0.0399738	1.72801	0.688108	0	0
21.96	3.01734	1.3965	-1.40436	0.699355	-0.486773	0.946081	0.0165891	-0.119332	-0.31764	0.505397	0.0501067	0	0	-0.255293	0.00297766	-0.181447	0.0881248	0.0619984	0	0	-0.332902	-0.0250957	0.0255808	-0.0935068	-0.41202	0.223302	1.52593	0	0	0	-0.136085	-0.364587	0.121645	1.64143	1.5708	0	0
21.97	3.00886	1.38993	-1.39571	0.698823	-0.487247	0.946741	0.0197556	-0.118597	-0.321859	0.521906	0.0552191	0	0	-0.261043	0.000555451	-0.1821	0.0890993	0.0618728	0	0	-0.340666	-0.0207552	0.0245042	-0.101843	-0.396733	0.223927	1.47983	0	0	0	-0.14747	-0.357491	0.117737	1.60283	1.5708	0	0
21.98	2.86109	1.33747	-1.25307	0.698141	-0.490915	0.953251	-0.0465565	-0.0667889	-0.353417	0.467209	0.0239949	0	0	-0.305557	-0.0440407	-0.200862	0.0899231	0.0604215	0	0	-0.400766	0.0281902	0.0442531	-0.0937863	-0.354503	-0.0679638	1.59966	0	0	0	-0.139407	-0.340609	0.124386	1.55329	1.5708	0	0
21.99	2.82356	1.31455	-1.20864	0.696201	-0.491627	0.95608	-0.0485399	-0.0544818	-0.35702	0.500745	0.0277321	0	0	-0.325811	-0.0617847	-0.199354	0.0877513	0.0580583	0	0	-0.423069	0.0515415	0.0425778	-0.0945451	-0.339517	-0.0897042	1.5476	0	0	0	-0.144216	-0.329137	0.126718	1.50242	1.5708	0	0
22	2.86665	1.32917	-1.25782	0.69735	-0.490848	0.953778	-0.0443619	-0.0662989	-0.363677	0.487615	0.0495558	0	0	-0.316948	-0.0442201	-0.20168	0.0859821	0.0594395	0	0	-0.408775	0.0331475	0.0421857	-0.100917	-0.31414	-0.110879	1.4908	0	0	0	-0.155243	-0.328942	0.128003	1.45754	1.5708	0	0
22.01	2.87137	1.32616	-1.26004	0.696928	-0.490715	0.954022	-0.0439119	-0.0663084	-0.371244	0.494948	0.0601173	0	0	-0.321851	-0.0441393	-0.199737	0.0832686	0.0585397	0	0	-0.411045	0.0346118	0.0384412	-0.10116	-0.301512	-0.068128	1.35804	0.0198729	0	0	-0.159523	-0.322001	0.129033	1.40307	1.5708	0	0
22.02	2.9466	1.36316	-1.33865	0.695665	-0.490878	0.94964	0.0133468	-0.107976	-0.376312	0.542065	0.0916381	0	0	-0.285728	-0.0110626	-0.188738	0.0855828	0.0587101	0	0	-0.375566	0.0100898	0.0325709	-0.108257	-0.28427	-0.080506	1.3031	0.0270432	0	0	-0.164299	-0.313422	0.130911	1.34289	1.5708	0	0
22.03	2.94481	1.36077	-1.33428	0.695589	-0.490299	0.949678	0.0128244	-0.105919	-0.384011	0.546431	0.100656	0	0	-0.291123	-0.0125381	-0.187403	0.0811487	0.0585318	0	0	-0.376156	0.0128913	0.0298678	-0.111681	-0.268157	-0.0927893	1.2455	0.0304511	0	0	-0.164383	-0.305362	0.133222	1.28154	1.5708	0	0
22.04	2.94163	1.35464	-1.32293	0.695664	-0.488728	0.949287	0.0148705	-0.101166	-0.377635	0.56745	0.112869	0	0	-0.300739	-0.0156724	-0.182571	0.0752401	0.0591922	0	0	-0.37793	0.0172038	0.0222983	-0.115968	-0.251249	-0.104998	1.18653	0.0336988	0	0	-0.166219	-0.300342	0.135339	1.22285	1.5708	0	0
22.05	3.02669	1.3337	-1.40052	0.693436	-0.490647	0.952603	-0.0222912	-0.118863	-0.410881	0.545345	0.111797	0	0	-0.328708	0.000197215	-0.168147	0.0683304	0.0454209	0	0	-0.410263	0.0084783	0.0114133	-0.105541	-0.238908	-0.117928	1.12362	0.0397722	0	0	-0.151673	-0.288214	0.137414	1.1537	1.5708	0	0
22.06	2.9601	1.34308	-1.34073	0.696433	-0.487292	0.950171	0.000607623	-0.0961701	-0.383061	0.56479	0.124176	0	0	-0.324036	-0.017198	-0.185332	0.0636136	0.0588398	0	0	-0.387582	0.0177608	0.0208143	-0.11152	-0.219472	-0.134528	1.05549	0.0453728	0	0	-0.155687	-0.281567	0.138736	1.08538	1.5708	0	0
22.07	2.95655	1.34596	-1.34493	0.696267	-0.488762	0.94992	0.00128199	-0.0943733	-0.390272	0.550632	0.122337	0	0	-0.318277	-0.0140573	-0.194704	0.0667502	0.0603648	0	0	-0.388464	0.0200733	0.0283411	-0.100633	-0.206926	-0.159008	0.983966	0.0535664	0	0	-0.139019	-0.263264	0.138734	1.00185	1.5708	0	0
22.08	2.92503	1.33504	-1.31556	0.698729	-0.48909	0.950442	-0.0103656	-0.0726879	-0.380799	0.539778	0.119521	0	0	-0.32807	-0.027981	-0.205867	0.0676744	0.065031	0	0	-0.400295	0.028294	0.0329245	-0.0845248	-0.185336	-0.189262	0.903386	0.0642744	0	0	-0.127187	-0.255714	0.137755	0.931051	1.5708	0	0
